<svg width="256" height="256" viewBox="0 0 256 256" fill="none" xmlns="http://www.w3.org/2000/svg">
  <circle cx="128" cy="128" r="120" stroke="#00ffe7" stroke-width="8" fill="#101010"/>
  <!-- Hawk head silhouette -->
  <path d="M 80 180 Q 120 100 200 120 Q 180 160 120 200 Q 100 190 80 180 Z" fill="#181f2a" stroke="#00ffe7" stroke-width="4"/>
  <!-- USB plug as beak -->
  <rect x="120" y="170" width="16" height="36" rx="4" fill="#00ffe7" stroke="#39ff14" stroke-width="2"/>
  <rect x="124" y="200" width="4" height="8" rx="2" fill="#39ff14"/>
  <rect x="128" y="200" width="4" height="8" rx="2" fill="#39ff14"/>
  <!-- Hawk eye -->
  <ellipse cx="170" cy="140" rx="10" ry="14" fill="#39ff14" stroke="#00ffe7" stroke-width="2"/>
  <circle cx="170" cy="144" r="4" fill="#101010" stroke="#ff00cc" stroke-width="2"/>
  <!-- Circuit lines -->
  <path d="M 128 40 L 128 80" stroke="#00ffe7" stroke-width="3" stroke-linecap="round"/>
  <path d="M 128 40 Q 148 60 170 60" stroke="#00ffe7" stroke-width="2" stroke-linecap="round"/>
  <path d="M 128 40 Q 108 60 86 60" stroke="#00ffe7" stroke-width="2" stroke-linecap="round"/>
  <!-- Radar sweep -->
  <path d="M128 128 L 200 80" stroke="#39ff14" stroke-width="2" opacity="0.5"/>
  <path d="M128 128 L 210 128" stroke="#39ff14" stroke-width="2" opacity="0.3"/>
  <path d="M128 128 L 200 176" stroke="#39ff14" stroke-width="2" opacity="0.2"/>
  <!-- Matrix code effect -->
  <text x="40" y="240" font-family="Consolas, monospace" font-size="18" fill="#00ffe7" opacity="0.3">010101</text>
  <text x="180" y="240" font-family="Consolas, monospace" font-size="18" fill="#39ff14" opacity="0.3">110011</text>
</svg> 